<svg viewBox="0 0 101 285" fill="none" xmlns="http://www.w3.org/2000/svg"><g opacity=".8" clip-path="url(#a)" fill="#EEAA2B"><path opacity=".5" d="M-41.5 260.48c65.16 0 117.98-52.82 117.98-117.98s-52.82-117.98-117.98-117.98-117.98 52.82-117.98 117.98 52.82 117.98 117.98 117.98Z"/><path d="M-41.57 0v3.41c-1.7 0-3.4.04-5.08.09l-.12-3.41c1.74-.06 3.46-.09 5.2-.09Zm5.2.09c1.75.06 3.47.15 5.2.27l-.24 3.4c-1.7-.12-3.38-.21-5.07-.28l.12-3.4Zm-15.6.29.26 3.4c-1.68.11-3.37.26-5.05.45l-.39-3.38c1.72-.18 3.45-.34 5.19-.47Zm25.98.46c1.73.18 3.45.4 5.17.64l-.5 3.38c-1.66-.24-3.34-.46-5.03-.63l.36-3.4Zm-36.31.66.5 3.38c-1.7.24-3.35.53-5.03.82l-.61-3.34c1.7-.31 3.41-.6 5.14-.86Zm46.62.84c1.7.3 3.41.65 5.1 1.02l-.73 3.33c-1.66-.36-3.31-.7-4.98-1l.61-3.35Zm-56.86 1.06.75 3.32c-1.66.38-3.31.77-4.93 1.2l-.86-3.31c1.66-.43 3.35-.84 5.04-1.21Zm67.01 1.17c1.7.45 3.35.9 5.02 1.4l-.97 3.28c-1.62-.5-3.24-.94-4.9-1.37l.85-3.3Zm-77.08 1.45.99 3.28c-1.62.5-3.24 1-4.83 1.55l-1.11-3.22c1.64-.58 3.3-1.11 4.95-1.6Zm87.05 1.56c1.66.56 3.3 1.14 4.92 1.77l-1.22 3.2a104.8 104.8 0 0 0-4.8-1.73l1.1-3.24Zm-96.9 1.8 1.23 3.2c-1.59.61-3.14 1.24-4.7 1.9l-1.32-3.15a108.3 108.3 0 0 1 4.8-1.94Zm106.66 1.92c1.6.68 3.2 1.4 4.76 2.13l-1.45 3.09c-1.53-.72-3.09-1.42-4.64-2.08l1.33-3.14Zm-116.22 2.15 1.45 3.09a127.6 127.6 0 0 0-4.55 2.23l-1.57-3.04c1.57-.78 3.12-1.55 4.67-2.28Zm125.66 2.27c1.55.8 3.07 1.62 4.6 2.47l-1.68 2.97c-1.49-.83-2.97-1.64-4.49-2.4l1.57-3.04Zm-134.87 2.49 1.67 2.97a208.3 208.3 0 0 0-4.37 2.56l-1.77-2.92c1.45-.89 2.95-1.77 4.47-2.61Zm143.95 2.63c1.48.9 2.95 1.84 4.4 2.8l-1.9 2.85c-1.4-.94-2.84-1.85-4.28-2.73l1.78-2.92Zm-152.83 2.78 1.9 2.85c-1.42.94-2.8 1.9-4.18 2.88l-1.98-2.78c1.4-1 2.81-2 4.27-2.95Zm161.52 2.97c1.41 1 2.8 2.05 4.18 3.1l-2.08 2.7c-1.35-1.04-2.7-2.05-4.08-3.04l1.98-2.76Zm-169.96 3.09 2.08 2.7a137.3 137.3 0 0 0-3.96 3.17l-2.19-2.63a160.5 160.5 0 0 1 4.07-3.24Zm178.2 3.27c1.33 1.11 2.64 2.26 3.94 3.42l-2.29 2.54a178.93 178.93 0 0 0-3.84-3.33l2.19-2.63Zm-186.19 3.38 2.27 2.55c-1.26 1.12-2.5 2.28-3.72 3.46l-2.37-2.46c1.24-1.2 2.52-2.39 3.82-3.55Zm193.94 3.57c1.24 1.21 2.47 2.42 3.68 3.67l-2.45 2.37a143.32 143.32 0 0 0-3.6-3.6l2.37-2.44Zm-201.45 3.65 2.46 2.37a119.2 119.2 0 0 0-3.47 3.72l-2.54-2.28c1.18-1.3 2.36-2.56 3.55-3.8Zm208.67 3.84c1.16 1.3 2.28 2.6 3.4 3.93l-2.64 2.18c-1.09-1.3-2.2-2.58-3.32-3.84l2.56-2.27Zm-215.62 3.91 2.63 2.18c-1.09 1.3-2.15 2.63-3.19 3.96l-2.7-2.08c1.06-1.38 2.16-2.73 3.26-4.06Zm222.27 4.08a124.6 124.6 0 0 1 3.1 4.16l-2.77 2c-1-1.38-2-2.73-3.04-4.08l2.71-2.08Zm-228.63 4.15 2.78 2c-.99 1.37-1.94 2.77-2.88 4.17l-2.85-1.9a141.9 141.9 0 0 1 2.95-4.27Zm234.69 4.3c.96 1.43 1.9 2.9 2.8 4.38l-2.92 1.78a172.9 172.9 0 0 0-2.73-4.29l2.85-1.87Zm-240.46 4.38 2.92 1.78c-.89 1.45-1.74 2.9-2.58 4.38l-2.97-1.67c.86-1.5 1.73-3 2.63-4.49Zm245.89 4.47c.85 1.5 1.67 3.04 2.47 4.58l-3.04 1.57c-.78-1.5-1.57-2.99-2.4-4.46l2.97-1.69Zm-251 4.61 3.05 1.57c-.79 1.5-1.52 3.04-2.26 4.58l-3.09-1.46c.74-1.58 1.5-3.14 2.3-4.69Zm255.76 4.63a117.9 117.9 0 0 1 2.11 4.74l-3.14 1.33a140.9 140.9 0 0 0-2.06-4.62l3.09-1.45Zm-260.19 4.8 3.14 1.36c-.66 1.55-1.3 3.14-1.91 4.72l-3.2-1.2a138 138 0 0 1 1.97-4.87Zm264.27 4.75c.61 1.62 1.2 3.25 1.77 4.9l-3.22 1.11c-.55-1.6-1.13-3.2-1.73-4.78l3.18-1.23Zm-268 5 3.22 1.11c-.55 1.6-1.07 3.23-1.55 4.85l-3.28-.97a169.4 169.4 0 0 1 1.6-4.99Zm271.36 4.85c.5 1.66.97 3.33 1.42 5.02l-3.32.87c-.42-1.64-.88-3.28-1.38-4.9l3.28-.99Zm-274.37 5.14 3.31.85c-.43 1.64-.82 3.28-1.2 4.93l-3.32-.73c.37-1.7.78-3.38 1.21-5.05Zm277 4.93c.37 1.69.71 3.4 1.04 5.1l-3.36.63c-.31-1.67-.65-3.33-1.01-4.98l3.33-.75Zm-279.24 5.24 3.37.61a98.7 98.7 0 0 0-.84 5l-3.38-.5c.26-1.7.53-3.42.85-5.11Zm281.13 4.98c.26 1.7.48 3.43.67 5.17l-3.4.38c-.19-1.7-.4-3.36-.65-5.04l3.38-.5Zm-282.64 5.3 3.4.38c-.2 1.68-.35 3.37-.47 5.06l-3.4-.24c.13-1.74.28-3.47.47-5.2Zm283.79 5.04c.11 1.73.22 3.47.29 5.2l-3.42.13c-.07-1.7-.15-3.4-.27-5.07l3.4-.26Zm-284.53 5.34 3.42.12c-.07 1.7-.1 3.38-.1 5.09v.29h-3.42v-.32c0-1.71.03-3.45.1-5.18Zm284.9 5.07v.14c0 1.69-.03 3.38-.08 5.05l-3.42-.12c.05-1.64.09-3.3.09-4.93l3.41-.14Zm-281.48 5.52c.06 1.7.15 3.4.29 5.06l-3.4.26c-.14-1.72-.22-3.46-.3-5.19l3.4-.13Zm277.7 4.64 3.4.24c-.12 1.74-.27 3.46-.46 5.19l-3.4-.36c.2-1.7.35-3.38.47-5.07Zm-276.95 5.48c.18 1.69.4 3.36.64 5.03l-3.37.5c-.26-1.71-.48-3.44-.67-5.16l3.4-.37Zm275.88 4.62 3.38.5a171.3 171.3 0 0 1-.83 5.13l-3.37-.61c.3-1.67.57-3.35.82-5.02Zm-274.4 5.43c.3 1.67.65 3.32 1.03 4.98l-3.33.75c-.38-1.69-.72-3.4-1.04-5.1l3.34-.63Zm272.58 4.55 3.33.74c-.38 1.7-.79 3.38-1.22 5.07l-3.3-.86c.42-1.64.81-3.29 1.19-4.95Zm-270.36 5.36c.43 1.64.89 3.28 1.38 4.9l-3.26 1c-.5-1.67-.97-3.34-1.41-5.01l3.29-.89Zm267.8 4.47 3.27.98c-.5 1.67-1.02 3.33-1.58 4.96l-3.23-1.09c.55-1.6 1.06-3.22 1.54-4.85Zm-264.85 5.24c.55 1.6 1.13 3.2 1.74 4.78l-3.19 1.23c-.61-1.62-1.21-3.24-1.77-4.9l3.22-1.1Zm261.57 4.39 3.2 1.21c-.62 1.62-1.27 3.24-1.95 4.85l-3.14-1.33c.66-1.56 1.3-3.14 1.9-4.73Zm-257.93 5.09c.66 1.55 1.34 3.08 2.08 4.62l-3.09 1.45c-.73-1.57-1.45-3.14-2.13-4.73l3.14-1.34Zm253.95 4.28 3.1 1.45a119.4 119.4 0 0 1-2.31 4.68l-3.04-1.56c.79-1.5 1.54-3.02 2.25-4.57Zm-249.63 4.88c.78 1.5 1.58 2.99 2.4 4.45l-2.97 1.68a128.8 128.8 0 0 1-2.47-4.58l3.03-1.55Zm245 4.18 2.96 1.67c-.85 1.52-1.72 3.02-2.63 4.5l-2.91-1.78c.88-1.45 1.74-2.92 2.57-4.39Zm-240.02 4.64c.89 1.45 1.79 2.87 2.73 4.29l-2.85 1.89c-.96-1.43-1.9-2.9-2.8-4.39l2.92-1.79Zm234.7 4.03 2.85 1.88c-.95 1.45-1.94 2.88-2.95 4.28l-2.78-1.98a93.7 93.7 0 0 0 2.88-4.18Zm-229.07 4.42c.99 1.38 2 2.73 3.04 4.06l-2.7 2.08a124.6 124.6 0 0 1-3.1-4.16l2.76-1.98Zm223.17 3.86 2.7 2.08a126.96 126.96 0 0 1-3.26 4.06l-2.63-2.18c1.1-1.3 2.15-2.63 3.19-3.96Zm-216.96 4.16c1.1 1.3 2.2 2.58 3.33 3.84l-2.54 2.29a182.7 182.7 0 0 1-3.42-3.93l2.63-2.2Zm210.46 3.65 2.54 2.27c-1.16 1.3-2.34 2.56-3.55 3.83l-2.46-2.38a140.3 140.3 0 0 0 3.47-3.72Zm-203.67 3.91a119.3 119.3 0 0 0 3.6 3.59l-2.37 2.45a146.5 146.5 0 0 1-3.68-3.67l2.45-2.37Zm196.62 3.4 2.37 2.45a125 125 0 0 1-3.8 3.55l-2.3-2.54c1.27-1.13 2.5-2.28 3.73-3.46Zm-189.3 3.65c1.27 1.13 2.55 2.23 3.84 3.33l-2.18 2.63a141.1 141.1 0 0 1-3.94-3.4l2.28-2.56Zm181.74 3.14 2.18 2.63c-1.33 1.1-2.68 2.2-4.06 3.26l-2.08-2.7a145.2 145.2 0 0 0 3.96-3.2Zm-173.92 3.34c1.35 1.05 2.7 2.05 4.08 3.04l-1.98 2.78c-1.42-1-2.81-2.04-4.18-3.1l2.08-2.72Zm165.9 2.87 2 2.78c-1.4 1.01-2.84 2-4.29 2.96l-1.9-2.85c1.42-.94 2.8-1.9 4.19-2.89Zm-157.64 3.06c1.42.94 2.85 1.84 4.3 2.73l-1.77 2.91c-1.49-.9-2.95-1.84-4.4-2.8l1.87-2.84Zm149.2 2.56 1.77 2.91c-1.49.9-2.97 1.78-4.5 2.63l-1.66-2.97c1.48-.83 2.93-1.69 4.38-2.57Zm-140.51 2.73c1.48.83 2.97 1.63 4.49 2.4l-1.56 3.04c-1.55-.8-3.09-1.62-4.59-2.47l1.66-2.97Zm131.66 2.25 1.57 3.04c-1.53.78-3.09 1.55-4.66 2.3l-1.45-3.09c1.52-.73 3.04-1.48 4.54-2.25Zm-122.6 2.39c1.54.71 3.09 1.41 4.66 2.06l-1.33 3.14c-1.6-.68-3.2-1.38-4.76-2.11l1.43-3.1Zm113.44 1.93 1.34 3.14c-1.58.68-3.19 1.33-4.8 1.94l-1.24-3.19c1.6-.6 3.14-1.25 4.7-1.9Zm-104.07 2.04c1.59.6 3.17 1.18 4.8 1.73l-1.1 3.22c-1.65-.56-3.3-1.14-4.91-1.77l1.2-3.18Zm94.6 1.6 1.1 3.22c-1.63.56-3.29 1.09-4.94 1.6l-1-3.27a144 144 0 0 0 4.84-1.56Zm-84.98 1.66c1.63.48 3.26.94 4.9 1.37l-.85 3.31c-1.7-.43-3.36-.9-5.02-1.4l.97-3.28Zm75.26 1.27.87 3.3c-1.67.45-3.36.86-5.05 1.24l-.75-3.33c1.66-.4 3.3-.79 4.93-1.21Zm-65.4 1.3c1.65.35 3.3.7 4.97 1l-.61 3.36c-1.7-.3-3.41-.64-5.1-1.02l.73-3.35Zm55.49.92.63 3.36c-1.7.3-3.41.6-5.14.85l-.5-3.38c1.68-.25 3.35-.53 5-.83Zm-45.52.88c1.68.24 3.35.45 5.04.64l-.36 3.4c-1.72-.2-3.45-.42-5.17-.66l.5-3.38Zm35.47.58.37 3.4c-1.72.19-3.44.34-5.19.48l-.25-3.4c1.7-.13 3.4-.29 5.07-.48Zm-25.36.52c1.69.12 3.38.2 5.07.27l-.12 3.41a127.4 127.4 0 0 1-5.2-.27l.25-3.41Zm15.24.23.12 3.42c-1.73.07-3.47.1-5.2.1v-3.41a143 143 0 0 0 5.08-.1Z"/></g><defs><clipPath id="a"><path fill="#fff" transform="translate(-184)" d="M0 0h285v285h-285z"/></clipPath></defs></svg>