<svg width="204" height="29" viewBox="0 0 204 29" fill="none" xmlns="http://www.w3.org/2000/svg">
<path d="M0.278409 6.3821V1.81818H21.7812V6.3821H13.7656V28H8.29403V6.3821H0.278409ZM23.1811 28V8.36364H28.4609V11.7898H28.6655C29.0234 10.571 29.6243 9.65057 30.468 9.02841C31.3118 8.39773 32.2834 8.08239 33.3828 8.08239C33.6555 8.08239 33.9496 8.09943 34.2649 8.13352C34.5803 8.16761 34.8572 8.21449 35.0959 8.27415V13.1065C34.8402 13.0298 34.4865 12.9616 34.0348 12.902C33.5831 12.8423 33.1697 12.8125 32.7947 12.8125C31.9936 12.8125 31.2777 12.9872 30.647 13.3366C30.0249 13.6776 29.5305 14.1548 29.1641 14.7685C28.8061 15.3821 28.6271 16.0895 28.6271 16.8906V28H23.1811ZM42.9485 28.3707C41.6957 28.3707 40.5792 28.1534 39.5991 27.7188C38.619 27.2756 37.8434 26.6236 37.2724 25.7628C36.7099 24.8935 36.4286 23.8111 36.4286 22.5156C36.4286 21.4247 36.6289 20.5085 37.0295 19.767C37.43 19.0256 37.9755 18.429 38.6658 17.9773C39.3562 17.5256 40.1403 17.1847 41.0181 16.9545C41.9045 16.7244 42.8335 16.5625 43.805 16.4688C44.9471 16.3494 45.8675 16.2386 46.5664 16.1364C47.2653 16.0256 47.7724 15.8636 48.0877 15.6506C48.4031 15.4375 48.5607 15.1222 48.5607 14.7045V14.6278C48.5607 13.8182 48.305 13.1918 47.7937 12.7486C47.2908 12.3054 46.5749 12.0838 45.646 12.0838C44.6658 12.0838 43.886 12.3011 43.3065 12.7358C42.7269 13.1619 42.3434 13.6989 42.1559 14.3466L37.119 13.9375C37.3746 12.7443 37.8775 11.7131 38.6275 10.8438C39.3775 9.96591 40.3448 9.29261 41.5295 8.82386C42.7227 8.34659 44.1033 8.10795 45.6715 8.10795C46.7624 8.10795 47.8065 8.2358 48.8036 8.49148C49.8093 8.74716 50.6999 9.14347 51.4755 9.6804C52.2596 10.2173 52.8775 10.9077 53.3292 11.7514C53.7809 12.5866 54.0067 13.5881 54.0067 14.7557V28H48.842V25.277H48.6886C48.3732 25.8906 47.9513 26.4318 47.4229 26.9006C46.8945 27.3608 46.2596 27.723 45.5181 27.9872C44.7766 28.2429 43.9201 28.3707 42.9485 28.3707ZM44.5082 24.6122C45.3093 24.6122 46.0167 24.4545 46.6303 24.1392C47.244 23.8153 47.7255 23.3807 48.0749 22.8352C48.4244 22.2898 48.5991 21.6719 48.5991 20.9815V18.8977C48.4286 19.0085 48.1942 19.1108 47.896 19.2045C47.6062 19.2898 47.2781 19.3707 46.9116 19.4474C46.5451 19.5156 46.1786 19.5795 45.8121 19.6392C45.4457 19.6903 45.1133 19.7372 44.815 19.7798C44.1758 19.8736 43.6175 20.0227 43.1403 20.2273C42.663 20.4318 42.2923 20.7088 42.0281 21.0582C41.7638 21.3991 41.6317 21.8253 41.6317 22.3366C41.6317 23.0781 41.9002 23.6449 42.4371 24.0369C42.9826 24.4205 43.6729 24.6122 44.5082 24.6122ZM75.8356 8.36364L68.9705 28H62.8342L55.9691 8.36364H61.7219L65.8001 22.4134H66.0046L70.07 8.36364H75.8356ZM86.9386 28.3835C84.9187 28.3835 83.18 27.9744 81.7227 27.1562C80.2738 26.3295 79.1573 25.1619 78.3732 23.6534C77.5891 22.1364 77.1971 20.3423 77.1971 18.2713C77.1971 16.2514 77.5891 14.4787 78.3732 12.9531C79.1573 11.4276 80.261 10.2386 81.6843 9.38636C83.1161 8.53409 84.7951 8.10795 86.7212 8.10795C88.0167 8.10795 89.2227 8.31676 90.3391 8.73438C91.4641 9.14347 92.4442 9.76136 93.2795 10.5881C94.1232 11.4148 94.7795 12.4545 95.2482 13.7074C95.717 14.9517 95.9514 16.4091 95.9514 18.0795V19.5753H79.3704V16.2003H90.8249C90.8249 15.4162 90.6545 14.7216 90.3136 14.1165C89.9727 13.5114 89.4996 13.0384 88.8945 12.6974C88.2979 12.348 87.6033 12.1733 86.8107 12.1733C85.984 12.1733 85.2511 12.3651 84.6119 12.7486C83.9812 13.1236 83.4869 13.6307 83.1289 14.2699C82.771 14.9006 82.5877 15.6037 82.5792 16.3793V19.5881C82.5792 20.5597 82.7582 21.3991 83.1161 22.1065C83.4826 22.8139 83.9982 23.3594 84.663 23.7429C85.3278 24.1264 86.1161 24.3182 87.0281 24.3182C87.6332 24.3182 88.1871 24.233 88.69 24.0625C89.1928 23.892 89.6232 23.6364 89.9812 23.2955C90.3391 22.9545 90.6119 22.5369 90.7994 22.0426L95.8363 22.375C95.5806 23.5852 95.0565 24.642 94.2639 25.5455C93.4798 26.4403 92.4656 27.1392 91.2212 27.642C89.9854 28.1364 88.5579 28.3835 86.9386 28.3835ZM104.951 1.81818V28H99.5053V1.81818H104.951ZM109.314 28V8.36364H114.76V28H109.314ZM112.05 5.83239C111.24 5.83239 110.545 5.56392 109.966 5.02699C109.395 4.48153 109.109 3.82954 109.109 3.07102C109.109 2.32102 109.395 1.67756 109.966 1.14062C110.545 0.59517 111.24 0.322442 112.05 0.322442C112.859 0.322442 113.55 0.59517 114.121 1.14062C114.7 1.67756 114.99 2.32102 114.99 3.07102C114.99 3.82954 114.7 4.48153 114.121 5.02699C113.55 5.56392 112.859 5.83239 112.05 5.83239ZM123.674 8.36364L127.279 15.2287L130.973 8.36364H136.56L130.871 18.1818L136.713 28H131.152L127.279 21.2116L123.469 28H117.844L123.674 18.1818L118.049 8.36364H123.674ZM148.229 28V1.81818H158.558C160.544 1.81818 162.236 2.19744 163.634 2.95597C165.031 3.70597 166.097 4.75 166.83 6.08807C167.571 7.41761 167.942 8.9517 167.942 10.6903C167.942 12.429 167.567 13.9631 166.817 15.2926C166.067 16.6222 164.98 17.6577 163.557 18.3991C162.142 19.1406 160.429 19.5114 158.418 19.5114H151.834V15.0753H157.523C158.588 15.0753 159.466 14.892 160.156 14.5256C160.855 14.1506 161.375 13.6349 161.716 12.9787C162.065 12.3139 162.24 11.5511 162.24 10.6903C162.24 9.82102 162.065 9.0625 161.716 8.41477C161.375 7.75852 160.855 7.25142 160.156 6.89347C159.457 6.52699 158.571 6.34375 157.497 6.34375H153.764V28H148.229ZM171.435 28V8.36364H176.715V11.7898H176.919C177.277 10.571 177.878 9.65057 178.722 9.02841C179.566 8.39773 180.537 8.08239 181.637 8.08239C181.909 8.08239 182.203 8.09943 182.519 8.13352C182.834 8.16761 183.111 8.21449 183.35 8.27415V13.1065C183.094 13.0298 182.74 12.9616 182.289 12.902C181.837 12.8423 181.424 12.8125 181.049 12.8125C180.248 12.8125 179.532 12.9872 178.901 13.3366C178.279 13.6776 177.784 14.1548 177.418 14.7685C177.06 15.3821 176.881 16.0895 176.881 16.8906V28H171.435ZM194.124 28.3835C192.138 28.3835 190.42 27.9616 188.972 27.1179C187.531 26.2656 186.419 25.081 185.635 23.5639C184.851 22.0384 184.459 20.2699 184.459 18.2585C184.459 16.2301 184.851 14.4574 185.635 12.9403C186.419 11.4148 187.531 10.2301 188.972 9.38636C190.42 8.53409 192.138 8.10795 194.124 8.10795C196.109 8.10795 197.822 8.53409 199.263 9.38636C200.712 10.2301 201.828 11.4148 202.612 12.9403C203.396 14.4574 203.788 16.2301 203.788 18.2585C203.788 20.2699 203.396 22.0384 202.612 23.5639C201.828 25.081 200.712 26.2656 199.263 27.1179C197.822 27.9616 196.109 28.3835 194.124 28.3835ZM194.149 24.1648C195.053 24.1648 195.807 23.9091 196.412 23.3977C197.017 22.8778 197.473 22.1705 197.78 21.2756C198.095 20.3807 198.253 19.3622 198.253 18.2202C198.253 17.0781 198.095 16.0597 197.78 15.1648C197.473 14.2699 197.017 13.5625 196.412 13.0426C195.807 12.5227 195.053 12.2628 194.149 12.2628C193.237 12.2628 192.47 12.5227 191.848 13.0426C191.234 13.5625 190.77 14.2699 190.455 15.1648C190.148 16.0597 189.994 17.0781 189.994 18.2202C189.994 19.3622 190.148 20.3807 190.455 21.2756C190.77 22.1705 191.234 22.8778 191.848 23.3977C192.47 23.9091 193.237 24.1648 194.149 24.1648Z" fill="white"/>
</svg>
